<svg xmlns="http://www.w3.org/2000/svg" width="13.479" height="12.447" viewBox="0 0 13.479 12.447"><defs><style>.a{fill:#797979;}</style></defs><path class="a" d="M51.273,64c1.754,0,3.242.9,3.242,2.658v9.722a.064.064,0,0,1-.123.023v0a3.048,3.048,0,0,0-2.668-2.285,4.115,4.115,0,0,0-3.018,1.2.349.349,0,0,1-.214.094h-.146c-.12,0-.246-.088-.246-.2V65.822C48.1,64.781,49.52,64,51.273,64Zm7.132,0c-1.754,0-3.242.9-3.242,2.658V76.38a.064.064,0,0,0,.123.023v0a3.08,3.08,0,0,1,2.668-2.285,4.108,4.108,0,0,1,3.018,1.2.369.369,0,0,0,.214.094h.146c.12,0,.246-.088.246-.2v-9.4C61.582,64.778,60.159,64,58.405,64Z" transform="translate(-48.1 -64)"/></svg>