<svg xmlns="http://www.w3.org/2000/svg" width="22" height="22" viewBox="0 0 22 22"><defs><style>.a{fill:#0076b1;}</style></defs><path class="a" d="M84.241,64H65.88A1.8,1.8,0,0,0,64,65.713v18.4A1.936,1.936,0,0,0,65.88,86H84.235A1.838,1.838,0,0,0,86,84.115v-18.4A1.687,1.687,0,0,0,84.241,64ZM70.819,82.338H67.668v-9.8h3.152ZM69.352,71.049H69.33a1.714,1.714,0,1,1,.023,0ZM82.338,82.338H79.186V76.98c0-1.284-.458-2.16-1.6-2.16a1.724,1.724,0,0,0-1.616,1.163,2.123,2.123,0,0,0-.109.774v5.582H72.711v-9.8h3.152V73.9A3.19,3.19,0,0,1,78.7,72.309c2.069,0,3.633,1.364,3.633,4.3Z" transform="translate(-64 -64)"/></svg>