<svg xmlns="http://www.w3.org/2000/svg" width="22" height="22" viewBox="0 0 22 22"><defs><style>.a{fill:#4469b0;}</style></defs><path class="a" d="M84.785,64H65.215A1.215,1.215,0,0,0,64,65.215V84.785A1.215,1.215,0,0,0,65.215,86H75V77.292H72.37V74.083H75V71.711a4.18,4.18,0,0,1,4.509-4.389c1.215,0,2.521.092,2.824.132v2.968H80.311c-1.381,0-1.644.653-1.644,1.616v2.045h3.289l-.43,3.208H78.667V86h6.119A1.215,1.215,0,0,0,86,84.785V65.215A1.215,1.215,0,0,0,84.785,64Z" transform="translate(-64 -64)"/></svg>