<svg xmlns="http://www.w3.org/2000/svg" width="27.128" height="22.075" viewBox="0 0 27.128 22.075"><defs><style>.a{fill:#65c1f4;}</style></defs><path class="a" d="M47.228,66.616a11.252,11.252,0,0,1-3.2.88,5.585,5.585,0,0,0,2.449-3.081,11.059,11.059,0,0,1-3.535,1.351,5.564,5.564,0,0,0-9.629,3.806,5.449,5.449,0,0,0,.144,1.27,15.773,15.773,0,0,1-11.475-5.823,5.577,5.577,0,0,0,1.73,7.439,5.436,5.436,0,0,1-2.529-.7v.069a5.571,5.571,0,0,0,4.467,5.461,5.6,5.6,0,0,1-1.466.2,5.251,5.251,0,0,1-1.046-.1,5.575,5.575,0,0,0,5.2,3.869,11.159,11.159,0,0,1-6.916,2.386,11.283,11.283,0,0,1-1.328-.08,15.557,15.557,0,0,0,8.52,2.518c10.25,0,15.849-8.491,15.849-15.855,0-.241-.006-.483-.017-.719A11.33,11.33,0,0,0,47.228,66.616Z" transform="translate(-20.1 -64)"/></svg>