<svg xmlns="http://www.w3.org/2000/svg" width="20.206" height="24.135" viewBox="0 0 20.206 24.135"><defs><style>.a{fill:#314e65;}</style></defs><path class="a" d="M90.16,52.2a8.221,8.221,0,0,1,1.373.26,5.9,5.9,0,0,1,4.459,5.793v7.4l.535.543.447.454H83.232l.447-.454.535-.543v-7.4a5.9,5.9,0,0,1,4.459-5.793,10.066,10.066,0,0,1,1.373-.26M90.1,48a1.764,1.764,0,0,0-1.783,1.81v.845a7.8,7.8,0,0,0-5.943,7.6v6.637L80,67.308v1.207h20.206V67.308l-2.377-2.413V58.257a7.8,7.8,0,0,0-5.943-7.6V49.81A1.764,1.764,0,0,0,90.1,48ZM92.48,69.721H87.726a2.377,2.377,0,1,0,4.754,0Z" transform="translate(-80 -48)"/></svg>