<svg xmlns="http://www.w3.org/2000/svg" width="22.344" height="22" viewBox="0 0 22.344 22"><defs><style>.a{fill:#65c1f4;}</style></defs><path class="a" d="M54.531,68.731a2.234,2.234,0,1,0,2.234,2.234A2.241,2.241,0,0,0,54.531,68.731ZM48,51.2v2.234h2.234l4.022,8.147-1.682,2.737a2.224,2.224,0,0,0,2.128,3.3H67.766V65.466H54.977a.264.264,0,0,1-.279-.279,1.393,1.393,0,0,1,.119-.279l1.116-1.762h8.323a2.192,2.192,0,0,0,1.955-1.173l4.022-6.918a1.306,1.306,0,0,0,.112-.559,1.074,1.074,0,0,0-1.117-1.062H52.692L51.631,51.2ZM65.531,68.731a2.234,2.234,0,1,0,2.234,2.234A2.241,2.241,0,0,0,65.531,68.731Z" transform="translate(-48 -51.2)"/></svg>