<svg xmlns="http://www.w3.org/2000/svg" width="15.073" height="15.073" viewBox="0 0 15.073 15.073"><defs><style>.a{fill:#314e65;}</style></defs><path class="a" d="M55.537,48a7.537,7.537,0,1,0,7.537,7.537A7.537,7.537,0,0,0,55.537,48Zm-.781,13.95a6.461,6.461,0,0,1-4.136-10.6,7.159,7.159,0,0,1,.073.876,2.794,2.794,0,0,0,.36,2.129,3.513,3.513,0,0,1,.341,1.017c.094.321.467.489.725.687.52.4,1.018.863,1.57,1.214.364.232.592.347.485.791a2.808,2.808,0,0,1-.295.9,1.816,1.816,0,0,0,.3.811c.272.272.541.521.837.765C55.479,60.912,54.975,61.4,54.756,61.95ZM60.1,60.1a6.414,6.414,0,0,1-3.354,1.778,2.68,2.68,0,0,1,.793-1.064,2.7,2.7,0,0,0,.714-.882,6.13,6.13,0,0,1,.492-.841c.256-.395-.631-.99-.919-1.115a9.47,9.47,0,0,1-1.709-1.064c-.41-.288-1.241.151-1.7-.051a8.914,8.914,0,0,1-1.706-1.172c-.568-.428-.541-.927-.541-1.558.445.016,1.078-.123,1.374.235.093.113.414.618.628.438.175-.146-.13-.734-.189-.872-.181-.424.413-.59.718-.878.4-.376,1.249-.964,1.182-1.234s-.852-1.032-1.313-.913c-.069.018-.677.656-.8.756q0-.312.009-.625c0-.131-.245-.266-.234-.351.029-.214.625-.6.774-.774-.1-.065-.459-.37-.566-.325-.26.108-.554.183-.813.291a1.654,1.654,0,0,0-.024-.258,6.4,6.4,0,0,1,1.642-.477l.51.205.36.428.36.371.314.1.5-.471-.129-.336v-.3a6.39,6.39,0,0,1,2.736,1.08c-.146.013-.307.035-.488.058a1.624,1.624,0,0,0-.252-.1c.237.509.483,1.011.734,1.513.268.536.862,1.112.966,1.678.123.667.038,1.273.1,2.058a3.516,3.516,0,0,0,.852,1.615,1.707,1.707,0,0,0,.666.081A6.42,6.42,0,0,1,60.1,60.1Z" transform="translate(-48 -48)"/></svg>